<svg width="130" height="259" viewBox="0 0 130 259" fill="none" xmlns="http://www.w3.org/2000/svg">
<path d="M26.3313 66.813C37.2728 67.1011 45.1665 72.2743 50.0663 82.0175C51.5678 85.0025 52.3904 88.2307 52.4533 91.63C52.5028 94.4575 52.5432 97.303 52.8984 100.099C53.5682 105.371 56.1844 109.653 60.1178 113.156C62.6171 115.385 65.5346 116.924 68.7487 117.748C71.5807 118.473 74.5026 118.716 77.42 118.131C80.4184 117.532 83.5021 117.199 86.3971 116.267C94.4841 113.674 100.427 108.478 104.023 100.711C104.571 99.5317 104.958 98.2755 105.457 97.0689C107.219 92.8006 110.577 90.581 115.023 90.4549C119.163 90.3378 122.49 92.3234 124.459 96.0513C127.641 102.067 124.67 109.32 118.336 111.404C117.248 111.76 116.061 111.922 114.915 111.963C109.84 112.138 105.16 113.584 100.755 116.069C96.0889 118.698 91.198 120.778 85.9655 122.044C82.6525 122.845 79.326 123.34 75.9231 123.615C71.4773 123.971 67.0944 123.633 62.761 122.854C58.504 122.093 54.3998 120.724 50.39 119.054C47.1174 117.69 43.6651 116.947 40.1048 117.649C37.5875 118.149 35.1106 118.856 32.6247 119.495C29.5499 120.288 26.4527 120.535 23.2925 120.139C18.9501 119.594 14.9448 118.14 11.389 115.601C6.69598 112.246 3.32453 107.857 1.46798 102.35C0.420586 99.2345 -0.100856 96.0378 0.016021 92.7466C0.258766 85.93 2.67722 80.0049 7.29386 74.9893C10.2967 71.725 13.9558 69.4333 18.1364 68.0511C20.7617 67.1822 23.4813 66.6149 26.3313 66.8085L26.3313 66.813Z" fill="white"/>
<path d="M96.1066 205.31C103.447 205.706 108.846 203.694 113.386 199.462C116.614 196.454 118.695 192.762 119.653 188.417C120.588 184.172 120.003 180.016 119.239 175.838C118.511 171.858 117.18 168.112 115.023 164.685C111.368 158.873 106.378 154.726 99.8107 152.587C95.8863 151.313 92.834 147.59 92.5014 143.88C91.9934 138.202 94.9738 134.587 98.4576 132.921C104.373 130.089 111.889 133.304 113.377 139.999C113.571 140.868 113.728 141.764 113.759 142.651C113.966 147.959 115.522 152.844 118.115 157.459C120.983 162.565 123.029 167.981 124.278 173.735C125.29 178.391 125.663 183.073 125.461 187.791C125.281 192.127 124.67 196.432 123.262 200.569C122.278 203.464 121.172 206.314 120.233 209.223C119.059 212.856 118.848 216.584 119.846 220.285C121.015 224.616 122.503 228.876 122.071 233.473C121.154 243.18 116.506 250.5 107.92 255.124C102.746 257.911 97.1764 258.834 91.3191 257.848C81.6812 256.228 74.8664 250.928 70.8836 242.045C69.0001 237.84 68.5506 233.382 69.0406 228.777C69.7103 222.469 72.3671 217.174 76.8623 212.807C80.1933 209.574 84.1177 207.345 88.6804 206.242C91.5034 205.558 94.3264 205.175 96.1066 205.31V205.31Z" fill="white"/>
<path d="M31.3748 3.34736C34.018 3.17627 37.2007 4.13077 40.3788 5.1393C43.8986 6.26039 47.5083 6.57556 51.0821 5.57153C54.0175 4.74759 56.854 3.57698 59.7624 2.64499C63.5699 1.42485 67.4404 0.420817 71.4636 0.249727C74.444 0.123661 77.4378 -0.0969535 80.4092 0.0471224C85.0798 0.272241 89.629 1.24025 94.0883 2.71252C98.2285 4.08125 102.117 5.93622 105.929 8.01632C109.548 9.98835 113.463 11.0419 117.554 11.4696C119.293 11.6542 121.082 11.7308 122.737 12.235C126.185 13.2886 128.347 15.7064 129.448 19.1777C131.21 24.7201 127.875 30.5056 122.934 32.1445C117.612 33.9094 111.62 31.6402 109.664 26.1203C107.669 20.4924 104.54 15.7514 99.8198 12.0865C96.0662 9.17343 91.8407 7.32295 87.1791 6.35494C84.0504 5.7021 80.9262 5.31039 77.7255 5.30589C72.6279 5.29688 68.209 7.09333 64.3836 10.335C59.9018 14.135 57.3755 19.0246 56.827 24.8957C56.7146 26.1068 56.7911 27.3405 56.8046 28.5606C56.9124 38.6639 52.9206 46.6286 44.4201 52.171C41.0217 54.3862 37.2546 55.5613 33.1864 55.944C24.7982 56.7319 17.6193 54.1791 11.726 48.2315C7.69825 44.1658 5.3652 39.2177 4.50661 33.4772C3.9402 29.7042 4.21892 26.0618 5.21687 22.4779C6.67783 17.2327 9.53232 12.8113 13.7669 9.33551C18.6712 5.31489 24.2858 3.29783 31.3793 3.33835L31.3748 3.34736Z" fill="white"/>
<path d="M8.68687 158.152C8.92063 147.545 13.753 139.643 23.0672 134.677C28.2143 131.93 33.8154 131.264 39.6278 132.358C47.7193 133.884 53.7025 138.31 57.7932 145.352C60.5218 150.043 61.5647 155.208 61.0882 160.579C60.8724 163.01 60.1352 165.415 59.4429 167.774C57.9595 172.834 58.0719 177.733 59.9869 182.708C61.3714 186.31 62.3379 190.083 63.3583 193.816C64.181 196.823 64.3068 199.93 64.4372 203.045C64.7024 209.434 63.8213 215.625 61.9108 221.712C60.5398 226.089 58.5933 230.19 56.4311 234.211C54.8263 237.196 53.7744 240.384 53.3563 243.774C53.0776 246.034 52.9428 248.326 52.4258 250.532C51.1986 255.782 45.4312 259.28 39.875 257.889C34.3998 256.52 31.0553 251.239 32.0982 245.669C32.8849 241.464 35.4157 238.884 39.3581 237.475C46.2718 235.003 51.4638 230.478 54.9836 224.035C57.1459 220.073 58.3146 215.801 58.7776 211.33C58.9664 209.47 59.2182 207.606 59.2182 205.742C59.2182 197.471 53.8868 189.718 46.3123 186.432C42.8015 184.905 39.1603 184.626 35.3663 184.73C32.7905 184.802 30.1293 184.37 27.6254 183.699C22.5593 182.343 18.3023 179.543 14.8903 175.522C12.5168 172.726 10.7952 169.584 9.74326 166.036C8.97457 163.452 8.59248 160.863 8.69137 158.148L8.68687 158.152Z" fill="white"/>
</svg>
